Coordinates
version=1
nRows=14
nColumns=38
inDegrees=no

Units are S.I. units (second, meters, Newtons, ...)
If the header above contains a line with 'inDegrees', this indicates whether rotational values are in degrees (yes) or radians (no).

endheader
time	pelvis_tilt	pelvis_list	pelvis_rotation	pelvis_tx	pelvis_ty	pelvis_tz	hip_flexion_r	hip_adduction_r	hip_rotation_r	knee_angle_r	ankle_angle_r	subtalar_angle_r	mtp_angle_r	hip_flexion_l	hip_adduction_l	hip_rotation_l	knee_angle_l	ankle_angle_l	subtalar_angle_l	mtp_angle_l	lumbar_extension	lumbar_bending	lumbar_rotation	arm_flex_r	arm_add_r	arm_rot_r	elbow_flex_r	pro_sup_r	wrist_flex_r	wrist_dev_r	arm_flex_l	arm_add_l	arm_rot_l	elbow_flex_l	pro_sup_l	wrist_flex_l	wrist_dev_l
9.73	-3.01614	1.28746	-1.57041	0.758773	1.33091	0.963639	-0.469587	0.0481739	-0.209069	0	0.0647093	0	0	-0.246884	-0.0661552	-0.342164	0.270865	0.109631	0	0	-0.653406	-0.0279595	0.04652	-0.160922	-0.599411	0.279708	1.66561	1.31082	0	0	-0.0649308	-0.583497	0.19176	1.71056	1.40721	0	0
9.74	-3.01628	1.28625	-1.57075	0.758184	1.33137	0.963663	-0.470927	0.0469912	-0.213431	0	0.0567556	0	0	-0.248854	-0.0652014	-0.341271	0.270219	0.109123	0	0	-0.653188	-0.0284796	0.0475398	-0.147696	-0.605579	0.288381	1.66323	1.30012	0	0	-0.0466	-0.581751	0.199349	1.70291	1.40289	0	0
9.75	-3.01737	1.28516	-1.57023	0.757696	1.33157	0.963699	-0.472674	0.046537	-0.213723	0	0.0557334	0	0	-0.250617	-0.0645587	-0.341426	0.269464	0.108817	0	0	-0.653473	-0.028753	0.0494526	-0.134931	-0.608795	0.292212	1.65868	1.3284	0	0	-0.0267948	-0.579614	0.206723	1.69539	1.41042	0	0
9.76	-3.01959	1.28368	-1.56913	0.757258	1.33171	0.963763	-0.475148	0.0463808	-0.210287	0	0.0588748	0	0	-0.253129	-0.06404	-0.342791	0.267955	0.108938	0	0	-0.654205	-0.0287961	0.0512618	-0.118527	-0.61394	0.303005	1.65313	1.31967	0	0	-0.00690305	-0.577243	0.213315	1.68773	1.40818	0	0
9.77	-3.02172	1.28224	-1.56852	0.756831	1.33185	0.963815	-0.476847	0.0455011	-0.210516	0	0.0543674	0	0	-0.255674	-0.0634341	-0.3443	0.26667	0.109066	0	0	-0.655028	-0.0289885	0.0532146	-0.101624	-0.618796	0.31313	1.64724	1.30964	0	0	0.0138565	-0.574697	0.22125	1.67973	1.40465	0	0
9.78	-3.02338	1.2804	-1.5679	0.75634	1.3319	0.963909	-0.47896	0.0447124	-0.211591	0	0.0501654	0	0	-0.258204	-0.0630439	-0.34467	0.266525	0.109011	0	0	-0.656407	-0.0289603	0.0542967	-0.0826095	-0.62522	0.327443	1.64242	1.26299	0	0	0.0351652	-0.572435	0.231041	1.67199	1.38471	0	0
9.79	-3.02567	1.279	-1.56618	0.755788	1.33194	0.963955	-0.480756	0.044546	-0.212052	0	0.048013	0	0	-0.259618	-0.0631724	-0.347109	0.266993	0.110269	0	0	-0.657652	-0.0284577	0.0559317	-0.0663625	-0.629363	0.332665	1.63833	1.25443	0	0	0.0573821	-0.569498	0.23955	1.66314	1.38156	0	0
9.8	-3.0265	1.27766	-1.5661	0.755273	1.33194	0.964059	-0.482699	0.0440414	-0.210917	0	0.0495186	0	0	-0.260845	-0.0628574	-0.349501	0.267664	0.110669	0	0	-0.659067	-0.0285106	0.0576797	-0.0505963	-0.633142	0.335852	1.63444	1.24633	0	0	0.0805882	-0.566218	0.248002	1.65315	1.37795	0	0
9.81	-3.02698	1.27617	-1.56659	0.754847	1.3319	0.964208	-0.485166	0.0436246	-0.207424	0	0.0552948	0	0	-0.262478	-0.0623078	-0.351073	0.267936	0.11029	0	0	-0.660871	-0.0289446	0.0594276	-0.0349623	-0.636392	0.337812	1.63014	1.23925	0	0	0.104296	-0.562929	0.25685	1.64278	1.37337	0	0
9.82	-3.02824	1.27475	-1.56631	0.754408	1.33184	0.964343	-0.487271	0.0433412	-0.204832	0	0.0583987	0	0	-0.264064	-0.0619128	-0.352182	0.268142	0.109724	0	0	-0.662765	-0.0290593	0.0607048	-0.0189589	-0.639182	0.339341	1.62498	1.23348	0	0	0.127786	-0.5594	0.265342	1.63217	1.36759	0	0
9.83	-3.02964	1.27317	-1.56571	0.753904	1.33173	0.964492	-0.489013	0.0428967	-0.204826	0	0.0579557	0	0	-0.265489	-0.0616357	-0.353576	0.268767	0.10903	0	0	-0.664955	-0.028827	0.0610293	-0.00125597	-0.641852	0.342343	1.61841	1.22875	0	0	0.15053	-0.555962	0.273608	1.62158	1.36202	0	0
9.84	-3.03051	1.27168	-1.56537	0.753393	1.33154	0.964675	-0.490428	0.0422349	-0.205294	0	0.0568737	0	0	-0.266253	-0.0615139	-0.35517	0.270337	0.107591	0	0	-0.667448	-0.0285132	0.0608628	0.0168863	-0.643289	0.343153	1.61018	1.24196	0	0	0.173251	-0.552554	0.281392	1.61055	1.37329	0	0
9.85	-3.07296	1.25614	-1.51945	0.752064	1.33057	0.9674	-0.505343	0.0557976	-0.210615	0	0.0410086	0	0	-0.282525	-0.0751538	-0.351915	0.268455	0.101708	0	0	-0.686407	-0.0119054	0.0628482	0.042259	-0.649242	0.351179	1.60069	1.22734	0	0	0.197205	-0.545785	0.289484	1.59694	1.36289	0	0
9.86	-3.07483	1.25502	-1.51809	0.751554	1.3302	0.967591	-0.506166	0.0556473	-0.211012	0	0.0389036	0	0	-0.283687	-0.0747924	-0.350533	0.267926	0.100183	0	0	-0.688678	-0.0110394	0.061503	0.0658784	-0.651571	0.359843	1.58945	1.20935	0	0	0.219674	-0.543883	0.300308	1.58629	1.34005	0	0
